<svg xmlns="http://www.w3.org/2000/svg" width="1080" height="1080" viewBox="0 0 1080 1080">
  <rect width="1080" height="1080" fill="#f4fbfa"/>
  <defs><clipPath id="canvas-clip"><rect width="1080" height="1080"/></clipPath></defs>
  <g clip-path="url(#canvas-clip)">
    <path d="M 0.0 191.8 C 12.9 201.5, 51.4 224.5, 77.1 250.1 C 102.9 275.8, 128.6 318.4, 154.3 345.9 C 180.0 373.3, 205.7 402.8, 231.4 414.7 C 257.1 426.6, 282.9 424.9, 308.6 417.1 C 334.3 409.3, 360.0 384.2, 385.7 367.9 C 411.4 351.6, 437.1 328.4, 462.9 319.2 C 488.6 309.9, 514.3 308.5, 540.0 312.2 C 565.7 315.9, 591.4 333.0, 617.1 341.3 C 642.9 349.6, 668.6 363.1, 694.3 361.9 C 720.0 360.8, 745.7 350.7, 771.4 334.3 C 797.1 318.0, 822.9 286.2, 848.6 264.0 C 874.3 241.9, 900.0 212.0, 925.7 201.4 C 951.4 190.7, 977.1 188.6, 1002.9 200.1 C 1028.6 211.5, 1067.1 258.3, 1080.0 269.9 L 1080.0 1084.0 L 0 1084.0 Z" fill="#c5e7e0" opacity="0.91"/>
    <path d="M 0.0 456.6 C 12.9 456.4, 51.4 455.6, 77.1 455.5 C 102.9 455.4, 128.6 455.8, 154.3 456.0 C 180.0 456.2, 205.7 456.8, 231.4 456.9 C 257.1 457.0, 282.9 457.0, 308.6 456.8 C 334.3 456.5, 360.0 455.8, 385.7 455.3 C 411.4 454.8, 437.1 454.0, 462.9 453.8 C 488.6 453.5, 514.3 453.3, 540.0 453.7 C 565.7 454.2, 591.4 455.2, 617.1 456.2 C 642.9 457.3, 668.6 459.1, 694.3 460.3 C 720.0 461.5, 745.7 462.9, 771.4 463.3 C 797.1 463.8, 822.9 463.7, 848.6 462.9 C 874.3 462.0, 900.0 460.1, 925.7 458.2 C 951.4 456.3, 977.1 453.4, 1002.9 451.5 C 1028.6 449.5, 1067.1 447.4, 1080.0 446.6 L 1080.0 1084.0 L 0 1084.0 Z" fill="#8ebfb6" opacity="0.92"/>
    <path d="M 0.0 549.0 C 12.9 539.3, 51.4 508.3, 77.1 491.0 C 102.9 473.7, 128.6 456.6, 154.3 445.1 C 180.0 433.6, 205.7 425.0, 231.4 422.0 C 257.1 419.0, 282.9 420.9, 308.6 427.0 C 334.3 433.2, 360.0 445.1, 385.7 459.0 C 411.4 472.9, 437.1 492.1, 462.9 510.5 C 488.6 529.0, 514.3 551.0, 540.0 569.6 C 565.7 588.3, 591.4 608.0, 617.1 622.6 C 642.9 637.2, 668.6 650.1, 694.3 657.2 C 720.0 664.3, 745.7 667.3, 771.4 665.2 C 797.1 663.2, 822.9 655.7, 848.6 645.0 C 874.3 634.3, 900.0 618.0, 925.7 601.1 C 951.4 584.3, 977.1 562.9, 1002.9 543.8 C 1028.6 524.7, 1067.1 495.9, 1080.0 486.3 L 1080.0 1084.0 L 0 1084.0 Z" fill="#5d9087" opacity="0.96"/>
    <path d="M 0.0 697.7 C 12.9 707.5, 51.4 751.8, 77.1 756.7 C 102.9 761.6, 128.6 745.7, 154.3 727.1 C 180.0 708.5, 205.7 667.9, 231.4 645.1 C 257.1 622.2, 282.9 596.9, 308.6 589.8 C 334.3 582.8, 360.0 592.1, 385.7 602.7 C 411.4 613.4, 437.1 640.0, 462.9 653.7 C 488.6 667.5, 514.3 681.3, 540.0 685.2 C 565.7 689.1, 591.4 681.2, 617.1 676.9 C 642.9 672.6, 668.6 661.1, 694.3 659.2 C 720.0 657.3, 745.7 661.0, 771.4 665.5 C 797.1 670.0, 822.9 683.6, 848.6 686.2 C 874.3 688.8, 900.0 689.5, 925.7 681.0 C 951.4 672.5, 977.1 650.5, 1002.9 635.1 C 1028.6 619.8, 1067.1 596.6, 1080.0 588.9 L 1080.0 1084.0 L 0 1084.0 Z" fill="#ffddd2" opacity="0.96"/>
    <path d="M 0.0 760.1 C 12.9 767.5, 51.4 793.2, 77.1 804.4 C 102.9 815.6, 128.6 824.6, 154.3 827.4 C 180.0 830.2, 205.7 825.8, 231.4 821.1 C 257.1 816.3, 282.9 805.3, 308.6 798.7 C 334.3 792.1, 360.0 784.4, 385.7 781.2 C 411.4 778.0, 437.1 778.5, 462.9 779.6 C 488.6 780.7, 514.3 786.0, 540.0 787.9 C 565.7 789.8, 591.4 792.4, 617.1 791.1 C 642.9 789.8, 668.6 785.0, 694.3 780.2 C 720.0 775.4, 745.7 766.3, 771.4 762.2 C 797.1 758.1, 822.9 753.6, 848.6 755.6 C 874.3 757.5, 900.0 764.5, 925.7 773.9 C 951.4 783.3, 977.1 800.1, 1002.9 812.1 C 1028.6 824.1, 1067.1 840.3, 1080.0 845.9 L 1080.0 1084.0 L 0 1084.0 Z" fill="#c5e7e0" opacity="0.97"/>
    <path d="M 0.0 1055.8 C 12.9 1058.2, 51.4 1067.5, 77.1 1069.9 C 102.9 1072.4, 128.6 1072.6, 154.3 1070.6 C 180.0 1068.6, 205.7 1064.1, 231.4 1057.8 C 257.1 1051.5, 282.9 1042.8, 308.6 1033.0 C 334.3 1023.2, 360.0 1011.3, 385.7 999.1 C 411.4 986.9, 437.1 973.0, 462.9 959.8 C 488.6 946.6, 514.3 932.5, 540.0 919.8 C 565.7 907.1, 591.4 894.3, 617.1 883.5 C 642.9 872.8, 668.6 862.8, 694.3 855.2 C 720.0 847.6, 745.7 841.6, 771.4 838.1 C 797.1 834.5, 822.9 833.1, 848.6 834.1 C 874.3 835.0, 900.0 838.4, 925.7 843.6 C 951.4 848.9, 977.1 856.7, 1002.9 865.7 C 1028.6 874.7, 1067.1 892.4, 1080.0 897.8 L 1080.0 1084.0 L 0 1084.0 Z" fill="#8ebfb6" opacity="0.99"/>
  </g>
</svg>